<?xml version="1.0" standalone="no"?>
<!DOCTYPE svg PUBLIC "-//W3C//DTD SVG 1.1//EN" "http://www.w3.org/Graphics/SVG/1.1/DTD/svg11.dtd">
<svg xmlns="http://www.w3.org/2000/svg">
<metadata>Copyright (C) 2016 by original authors @ fontello.com</metadata>
<defs>
<font id="icones" horiz-adv-x="1000" >
<font-face font-family="icones" font-weight="400" font-stretch="normal" units-per-em="1000" ascent="850" descent="-150" />
<missing-glyph horiz-adv-x="1000" />
<glyph glyph-name="notepad_add" unicode="&#xe800;" d="M719 663c26 0 47 21 47 46v94c0 26-21 47-47 47s-47-21-47-47v-94c0-25 21-46 47-46z m-235 0c26 0 47 21 47 46v94c0 26-21 47-47 47s-46-21-46-47v-94c0-25 21-46 46-46z m454-625h-47v46c0 26-21 47-47 47s-47-21-47-47v-46h-47c-26 0-47-21-47-47s21-47 47-47h47v-47c0-26 21-47 47-47s47 21 47 47v47h47c25 0 46 21 46 47s-21 47-46 47z m-282-47c0 51 42 93 94 93 0 52 42 94 94 94s94-42 94-94v625c0 26-21 47-47 47h-78v-47c0-51-42-93-94-93s-94 42-94 93v47h-47v-47c0-51-42-93-94-93-51 0-93 42-93 93v47h-47v-47c0-51-42-93-94-93s-94 42-94 93v47h-78c-26 0-47-21-47-47v-812c0-26 21-47 47-47h672v47c-52 0-94 42-94 94z m-453 500h563c26 0 47-21 47-47s-21-47-47-47h-563c-26 0-47 21-47 47s21 47 47 47z m289-485h-297c-21 0-39 18-39 39s18 39 39 39h297c22 0 39-17 39-39s-17-39-39-39z m117 188h-406c-26 0-47 21-47 47s21 47 47 47h406c26 0 47-21 47-47s-21-47-47-47z m-359 469c26 0 47 21 47 46v94c0 26-21 47-47 47s-47-21-47-47v-94c0-25 21-46 47-46z" horiz-adv-x="1000" />

<glyph glyph-name="line_graph" unicode="&#xe801;" d="M953 22h-859v192l217 128 210-140c0 0 0 0 0 0l0 0 0 0c7-5 16-8 26-8 10 0 19 3 27 8l0 0 405 281c0 0 0 0 0 0l1 0 0 0c12 9 20 23 20 39 0 26-21 47-47 47-10 0-19-3-26-9l-1 0-380-263-207 139c0 0 0 0 0 0l0 0 0 0c-8 5-17 8-26 8-9 0-17-3-24-7l0 0-195-114v402c0 26-21 47-47 47s-47-21-47-47v-750c0-26 21-47 47-47h906c26 0 47 21 47 47s-21 47-47 47z" horiz-adv-x="1000" />

<glyph glyph-name="power" unicode="&#xe802;" d="M484 334c26 0 47 21 47 47v422c0 26-21 47-47 47s-46-21-46-47v-50l0 0v-372c0-26 21-47 46-47z m172 389v-1c-5 2-10 3-15 3-26 0-47-21-47-47 0-20 13-38 31-44v0c129-55 219-182 219-331 0-198-161-359-360-359s-359 161-359 359c0 149 90 276 219 331v0c18 6 31 24 31 44 0 26-21 47-47 47-5 0-11-1-15-3v1c-165-68-282-230-282-420 0-250 203-453 453-453 251 0 454 203 454 453 0 190-117 352-282 420z" horiz-adv-x="1000" />

<glyph glyph-name="circle_right" unicode="&#xe803;" d="M734 385l1 0-157 141 0-1c-8 8-19 13-31 13-26 0-47-21-47-47 0-14 6-26 16-35l0 0 65-59h-284c-26 0-47-21-47-47s21-47 47-47h284l-65-59 0 0c-10-8-16-21-16-35 0-25 21-46 47-46 12 0 23 4 31 12l0 0 157 140-1 0c10 9 16 21 16 35s-6 26-16 35z m-234 465c-276 0-500-224-500-500s224-500 500-500 500 224 500 500-224 500-500 500z m0-906c-224 0-406 182-406 406 0 224 182 406 406 406 224 0 406-182 406-406 0-224-182-406-406-406z" horiz-adv-x="1000" />

<glyph glyph-name="magnifying_glass" unicode="&#xe804;" d="M973 10l-275 275c33 56 52 121 52 190 0 207-168 375-375 375s-375-168-375-375 168-375 375-375c70 0 134 19 190 52l275-275c17-17 40-27 66-27 52 0 94 42 94 94 0 26-10 49-27 66z m-598 184c-155 0-281 126-281 281 0 155 126 281 281 281 155 0 281-126 281-281 0-155-126-281-281-281z" horiz-adv-x="1000" />

<glyph glyph-name="shop" unicode="&#xe805;" d="M156 709h688c26 0 47 21 47 47s-21 47-47 47h-688c-26 0-47-21-47-47s21-47 47-47z m756-46h-824l-88-235c0-69 56-125 125-125s125 56 125 125c0-69 56-125 125-125s125 56 125 125c0-69 56-125 125-125s125 56 125 125c0-69 56-125 125-125s125 56 125 125l-88 235z m-53-406v0c-4 0-8 1-13 2-1 0-2 0-3 0-2 1-4 1-6 2-8 2-16 4-24 7v-230h-625v230c-8-3-17-5-25-7-2-1-4-1-6-2-1 0-2 0-3 0-4-1-9-2-13-2v0c-5 0-11-1-16-1-11 0-21 1-31 3v-315c0-26 21-47 47-47h718c26 0 47 21 47 47v315c-10-2-20-3-31-3-5 0-10 1-16 1z" horiz-adv-x="1000" />

<glyph glyph-name="pin_2" unicode="&#xe806;" d="M500 600c-69 0-125-56-125-125s56-125 125-125 125 56 125 125-56 125-125 125z m0 250c-207 0-375-168-375-375 0-207 375-625 375-625s375 418 375 625c0 207-168 375-375 375z m0-625c-138 0-250 112-250 250s112 250 250 250 250-112 250-250-112-250-250-250z" horiz-adv-x="1000" />

<glyph glyph-name="plus" unicode="&#xe807;" d="M813 397h-266v266c0 25-21 46-47 46s-47-21-47-46v-266h-265c-26 0-47-21-47-47s21-47 47-47h265v-265c0-26 21-47 47-47s47 21 47 47v265h266c25 0 46 21 46 47s-21 47-46 47z" horiz-adv-x="1000" />

<glyph glyph-name="list" unicode="&#xe808;" d="M47 553h906c26 0 47 21 47 47s-21 47-47 47h-906c-26 0-47-21-47-47s21-47 47-47z m906-156h-906c-26 0-47-21-47-47s21-47 47-47h906c26 0 47 21 47 47s-21 47-47 47z m0-250h-906c-26 0-47-21-47-47s21-47 47-47h906c26 0 47 21 47 47s-21 47-47 47z" horiz-adv-x="1000" />

<glyph glyph-name="warning" unicode="&#xe809;" d="M993 15l0 0-453 734 0 0c-8 14-23 23-40 23-16 0-31-9-39-21l0 0-454-735 1 0c-5-7-8-16-8-25 0-26 21-47 47-47 0 0 0 0 0 0v-1h907v1c25 0 46 21 46 47 0 8-3 17-7 24z m-493 23c-34 0-62 28-62 62s28 63 62 63 63-28 63-63-28-62-63-62z m63 234c0-35-28-63-63-63s-62 28-62 63v234c0 35 28 63 62 63s63-28 63-63v-234z" horiz-adv-x="1000" />

<glyph glyph-name="printer" unicode="&#xe80a;" d="M953 616h-906c-26 0-47-21-47-47v-438c0-26 21-47 47-47h156v235h594v-235h156c26 0 47 21 47 47v438c0 26-21 47-47 47z m-812-188c-26 0-47 21-47 47s21 47 47 47 47-21 47-47-21-47-47-47z m609 376h0c0 0 0 0 0 0 0 9-3 18-8 26 0 0 0 0 0 0-2 2-4 4-6 6l0 0c0 0 0 1 0 1-3 2-6 4-9 6 0 0 0 0 0 0 0 0 0 0 0 0-4 3-9 5-14 6l0 0c-3 1-5 1-7 1-1 0-2 0-3 0h-406c-19 0-36-12-43-29-3-5-4-11-4-18v-140h500v141z m-500-907c0-26 21-47 47-47h406c26 0 47 21 47 47v375h-500v-375z m94 281h312v-47h-312v47z m0-94h312v-46h-312v46z m0-93h312v-47h-312v47z" horiz-adv-x="1000" />

<glyph glyph-name="cog" unicode="&#xe80b;" d="M500 538c-103 0-187-84-187-188 0-103 83-187 187-187s188 84 188 187-84 188-188 188z m0-282c-52 0-94 42-94 94 0 52 42 94 94 94 52 0 94-42 94-94 0-52-42-94-94-94z m368 196c-9 31-21 60-37 87 18 23 78 111 35 155l-23 23c-37 38-132-21-155-36-27 16-56 28-87 37-5 29-27 132-88 132h-24c-53 0-83-106-90-133-30-9-59-21-86-36-21 15-112 78-157 34l-23-20c-39-39 25-141 37-159-15-26-27-55-35-84-26-5-135-26-135-89v-24c0-55 115-85 136-90 8-30 20-58 35-84-12-20-74-121-36-160l22-18c51-51 156 32 156 32l-5 5c28-16 59-29 91-38 5-22 35-136 90-136h24c71 0 89 133 89 133l-7 0c33 9 63 21 92 37 22-15 116-73 153-36l25 25c49 50-32 151-34 154 16 27 28 56 36 87 28 7 133 37 133 89v24c0 69-125 88-132 89z m-368-383c-155 0-281 126-281 281 0 155 126 281 281 281 155 0 281-126 281-281 0-155-126-281-281-281z" horiz-adv-x="1000" />

<glyph glyph-name="calendar" unicode="&#xe80c;" d="M750 631c26 0 47 21 47 47v125c0 26-21 47-47 47s-47-21-47-47v-125c0-26 21-47 47-47z m203 94h-94v-47c0-60-49-109-109-109s-109 49-109 109v47h-282v-47c0-60-49-109-109-109s-109 49-109 109v47h-94c-26 0-47-21-47-47v-781c0-26 21-47 47-47h906c26 0 47 21 47 47v781c0 26-21 47-47 47z m-47-781h-812v531h812v-531z m-656 687c26 0 47 21 47 47v125c0 26-21 47-47 47s-47-21-47-47v-125c0-26 21-47 47-47z m162-400c-6-6-12-11-19-15-7-4-14-9-20-13-12-9-24-17-35-25-11-8-21-17-29-27s-14-20-19-32c-5-13-7-27-7-43h209v49h-135c7 10 15 18 25 26 9 7 18 14 28 20 10 7 20 13 29 20 10 6 18 13 26 21 8 8 14 17 18 28 5 10 7 22 7 37 0 14-2 26-8 37-5 11-12 21-21 28-9 8-19 14-31 18-12 4-24 6-37 6-17 0-33-3-46-9-13-6-24-14-32-24-9-11-16-23-20-37-4-14-6-29-6-45h56c0 7 0 15 2 23 1 7 4 14 7 21 4 6 9 11 14 15s13 6 22 6c12 0 22-4 30-11 8-8 12-19 12-33 0-8-2-16-5-23-4-7-9-13-15-18z m236-97c-4-5-9-9-15-12-7-3-13-5-21-5-13 0-24 4-32 12-8 8-13 18-15 31h-57c0-15 3-28 9-39 6-11 13-21 23-28 10-8 21-14 34-17s25-6 39-6c15 0 28 2 41 7 13 5 24 13 33 22s18 20 23 32c6 13 9 27 9 41 0 14-2 26-6 38-4 12-10 22-17 31s-17 15-28 20c-10 5-23 8-37 8-11 0-21-2-30-5-9-4-18-9-26-17l0 1 11 64h117v48h-158l-28-157h52c5 8 11 13 18 17 6 4 15 5 25 5 8 0 15-1 21-4 6-2 11-6 15-11 4-5 8-11 10-17 2-7 3-13 3-21 0-7-1-14-3-20-3-7-6-13-10-18z" horiz-adv-x="1000" />

<glyph glyph-name="repeat_1" unicode="&#xe80d;" d="M703 538c0-26 21-47 47-47h203c26 0 47 21 47 47v187c0 26-21 47-47 47s-47-21-47-47v-84c-90 126-238 209-406 209-276 0-500-224-500-500s224-500 500-500 500 224 500 500c0 26-21 47-47 47s-47-21-47-47c0-224-182-406-406-406-224 0-406 182-406 406 0 224 182 406 406 406 137 0 258-68 332-172h-82c-26 0-47-21-47-46z" horiz-adv-x="1000" />

<glyph glyph-name="speech_4" unicode="&#xe80e;" d="M810 111l-99 98h-414c-52 0-94 42-94 94v328h-140c-26 0-47-21-47-47v-531c0-26 21-47 46-47h55l0 0h8v-94c0-3 0-6 1-9 0-2 1-4 2-6 0-1 0-2 1-3 0-2 2-3 3-5 0-1 0-2 1-3 2-2 3-4 5-6 0 0 1-1 1-1 8-8 20-13 32-13 1 0 1 0 1 0 13 0 25 5 33 13l127 127h12l0 0h47l0 0h107l0 0h330l0 0c26 0 47 21 47 47v31c-25 0-48 11-65 27l0 0z m143 708h-656c-26 0-47-21-47-47v-469c0-26 21-47 47-47h434l111-111c8-8 20-14 33-14 0 0 0 0 1 0 12 1 24 6 32 14 0 0 1 0 1 1 2 2 3 4 5 6 1 1 1 2 1 3 1 2 2 3 3 5 1 1 1 2 1 3 1 2 2 4 2 6 1 3 1 6 1 9v78h31c26 0 47 21 47 47v469c0 26-21 47-47 47z" horiz-adv-x="1000" />

<glyph glyph-name="users" unicode="&#xe80f;" d="M638 194c-57 29-35 7-106 36-71 29-87 39-87 39l-1 67c0 0 26 20 35 83 16-5 22 19 23 35 1 14 10 61-11 57 4 31 8 59 6 73-5 52-41 107-132 111-77-4-127-59-133-111-1-15 2-42 6-73-20 4-11-43-10-57 0-16 6-40 23-35 8-64 34-84 34-84l0-67c0 0-17-10-88-39-71-30-48-6-106-35-91-45-91-169-91-169h0c0 0 0 0 0 0 0-19 15-34 34-34h661c19 0 34 15 34 34 0 0 0 0 0 0h0c0 0 0 124-91 169z m360-172c0 0 0 113-82 154-53 26-32 6-97 32-64 27-79 36-79 36l-1 60c0 0 24 19 32 76 15-4 20 18 21 32 1 13 9 55-10 52 4 28 7 53 5 67-4 47-37 96-120 100-70-4-116-53-120-100-2-14 1-39 5-67-19 3-11-39-10-52 1-14 6-36 21-32 8-57 32-76 32-76l-1-61c22-5 25-1 69-23 103-51 103-192 103-192h0c0 0 0 0 0 0 0-18-13-34-30-37h231c18 0 31 14 31 31 0 0 0 0 0 0l0 0 0 0z" horiz-adv-x="1000" />

<glyph glyph-name="user" unicode="&#xe810;" d="M1000-87c0 0 0 170-125 233-79 39-48 9-145 49-97 40-120 53-120 53l-1 92c0 0 36 28 48 115 22-7 30 27 31 48 2 20 14 84-14 78 6 43 10 81 8 102-7 71-56 146-181 151-106-5-175-80-182-151-2-21 2-59 8-102-28 6-16-58-15-78 1-22 9-55 32-48 11-87 47-115 47-115l-1-93c0 0-23-14-120-54-97-40-66-8-145-47-125-63-125-233-125-233h0c0 0 0-1 0-1 0-25 21-46 47-46h906c26 0 47 21 47 46 0 0 0 1 0 1h0z" horiz-adv-x="1000" />

<glyph glyph-name="square_ok" unicode="&#xe811;" d="M719 522v0c0 0 0 0 0 0 0 0 0 0 0 0z m0-344c0 0 0 0 0 0 0 0 0 0 0 0v0z m-315 14c9-9 21-14 34-14s24 5 33 14l250 250c8 8 13 20 13 33 0 26-21 47-46 47-13 0-25-5-34-14l-216-217-108 108c-8 8-20 14-33 14-26 0-47-21-47-47 0-13 5-25 14-33l140-141z m549 658h-906c-26 0-47-21-47-47v-906c0-26 21-47 47-47h906c26 0 47 21 47 47v906c0 26-21 47-47 47z m-47-906h-812v812h812v-812z" horiz-adv-x="1000" />

<glyph glyph-name="tags" unicode="&#xe812;" d="M877 430l-80 77c0 0-1 0-1-1l-263 252c-8 9-20 14-33 14 0 0 0 0 0 0v0h-297v0c-26 0-47-21-47-47h344l376-362 4 4 0 0c6 8 11 19 11 30 0 13-6 25-14 33z m-18-142c0 2 0 3 0 4 0 1 0 1 0 1 0 1 0 3-1 4 0 0 0 0 0 0-1 9-6 18-13 24l-359 343c-8 9-20 14-33 14 0 0 0 0 0 0v0h-297v0c-26 0-47-21-47-47h0v-297h1c0-14 6-26 16-35l-1 0 391-359 0 0c6-6 14-10 22-11 1 0 1 0 1 0 1 0 2-1 3-1 2 0 3 0 5 0 14 0 27 6 36 17l0 0 265 312 0 0c7 8 11 19 11 31 0 0 0 0 0 0z m-625 203c-34 0-62 28-62 62s28 63 62 63 63-28 63-63-28-62-63-62z" horiz-adv-x="1000" />

<glyph glyph-name="pie_chart" unicode="&#xe813;" d="M547 850v-453h453c0 250-203 453-453 453z m-94-94c-250 0-453-203-453-453 0-250 203-453 453-453 250 0 453 203 453 453h-453v453z" horiz-adv-x="1000" />

<glyph glyph-name="diskette" unicode="&#xe814;" d="M234 459c0-26 21-47 47-47h63v1h281v-1h63c25 0 46 21 46 47v94h0v281h-500v-281h0v-94z m266 313h141v-297h-141v297z m486-92l-140 141c-9 8-20 13-33 13h-32v-234h0v-141c0-51-40-92-91-93h-411c-51 1-91 42-91 93v141h0v234h-141c-26 0-47-21-47-46v-876c0-25 21-46 47-46h906c26 0 47 21 47 46v735c0 13-5 25-14 33z" horiz-adv-x="1000" />

<glyph glyph-name="tick" unicode="&#xe815;" d="M781 569c-13 0-24-5-33-14l-326-326-170 170c-9 8-20 14-33 14-26 0-47-21-47-47 0-13 5-25 14-33l203-204c8-8 20-13 33-13s25 5 33 13l359 360c9 8 14 20 14 33 0 26-21 47-47 47z" horiz-adv-x="1000" />

<glyph glyph-name="time" unicode="&#xe816;" d="M703 397h-156v234c0 26-21 47-47 47s-47-21-47-47v-281c0-26 21-47 47-47h203c26 0 47 21 47 47s-21 47-47 47z m-203 453c-276 0-500-224-500-500s224-500 500-500 500 224 500 500-224 500-500 500z m0-906c-224 0-406 182-406 406 0 224 182 406 406 406 224 0 406-182 406-406 0-224-182-406-406-406z" horiz-adv-x="1000" />

<glyph glyph-name="document" unicode="&#xe817;" d="M547 491h297l-344 313v-266c0-26 21-47 47-47z m-94 47v265h-250c-26 0-47-21-47-47v-812c0-26 21-47 47-47h594c26 0 47 21 47 47v500h-297c-52 0-94 42-94 94z" horiz-adv-x="1000" />

<glyph glyph-name="documents" unicode="&#xe818;" d="M500 584v266h-250c-26 0-47-21-47-47v-812c0-26 21-47 47-47h594c26 0 47 21 47 47v499h-297c-52 0-94 43-94 94z m94-47h297l-344 314v-267c0-26 21-47 47-47z m-438-546v765c-26 0-47-21-47-47v-765c0-52 42-94 94-94h547c26 0 47 21 47 47h-547c-52 0-94 42-94 94z" horiz-adv-x="1000" />

<glyph glyph-name="arrow_left" unicode="&#xe819;" d="M674 101l-248 249 245 246c10 8 17 21 17 35 0 26-21 47-47 47-13 0-24-5-33-13l0 0-281-281 0 0c-9-9-14-20-14-34 0 0 0 0 0 0 0 0 0 0 0 0 0-13 5-25 14-34l0 0 281-281 0 0c9-8 20-13 33-13 26 0 47 21 47 47 0 12-5 24-14 32l0 0z" horiz-adv-x="1000" />

<glyph glyph-name="book_2" unicode="&#xe81a;" d="M168 339l0 0 172-78 0 0c6-3 13-5 19-5 26 0 47 21 47 47 0 19-11 35-27 43l0 0-172 78 0 0c-6 3-13 4-19 4-26 0-47-21-47-47 0-19 11-35 27-42z m0-172l0 0 172-78 0 0c6-3 13-5 19-5 26 0 47 21 47 47 0 19-11 36-27 43l0 0-172 78 0 0c-6 3-13 4-19 4-26 0-47-21-47-47 0-19 11-35 27-42z m0 344l0 0 172-79 0 0c6-2 13-4 19-4 26 0 47 21 47 47 0 19-11 35-27 43l0 0-172 78 0 0c-6 3-13 4-19 4-26 0-47-21-47-47 0-19 11-35 27-42z m473-427c7 0 13 2 19 5l0 0 172 78 0 0c16 7 27 23 27 42 0 26-21 47-46 47-7 0-14-1-20-4l0 0-172-78 0 0c-16-7-27-24-27-43 0-26 21-47 47-47z m312 766c-6 0-12-1-18-4l0 0 0 0c0 0 0 0 0 0l-435-180-435 180c0 0 0 0 0 0l0 0 0 0c-6 3-12 4-18 4-26 0-47-21-47-47v-719c0-19 12-36 29-43l453-187c5-3 11-4 18-4s13 1 19 4l452 187c17 7 29 24 29 43v719c0 26-21 47-47 47z m-500-883l-359 149v617l359-149v-617z m453 149l-359-149v617l359 149v-617z m-265 140c7 0 13 2 19 5l0 0 172 78c16 7 27 23 27 42 0 26-21 47-46 47-7 0-14-1-20-4l0 0-172-78 0 0c-16-8-27-24-27-43 0-26 21-47 47-47z m0 172c7 0 13 2 19 4l0 0 172 79 0 0c16 7 27 23 27 42 0 26-21 47-46 47-7 0-14-1-20-4l0 0-172-78c-16-8-27-24-27-43 0-26 21-47 47-47z" horiz-adv-x="1000" />

<glyph glyph-name="folder" unicode="&#xe81b;" d="M0 6c0-26 21-47 47-47h906c26 0 47 21 47 47v500h-1000v-500z m953 641h-578l-94 94h-234c-26 0-47-21-47-47v-141h1000v47c0 26-21 47-47 47z" horiz-adv-x="1000" />

<glyph glyph-name="heart" unicode="&#xe81c;" d="M918 705c-53 53-124 83-199 83s-136-27-189-81c0 0 0 0 0 0l0 0-30-38-30 36c0 0 0 0 0 0 0 0 0 0 0 0-53 53-114 83-189 83s-145-30-199-83c-53-53-82-124-82-199 0-75 29-145 82-198l374-377c11-12 27-19 44-19 17 0 33 7 44 19l374 376c53 54 82 124 82 199 0 75-29 146-82 199z" horiz-adv-x="1000" />

<glyph glyph-name="user_ok" unicode="&#xe81d;" d="M699-60c-17 17-27 40-27 66 0 52 42 94 94 94 24 0 45-9 62-24l59 59c1 1 2 1 2 2-4 3-9 6-14 9-79 39-48 9-145 49-97 40-120 53-120 53l-1 92c0 0 36 28 48 115 22-7 30 27 31 48 2 20 14 84-14 78 5 43 10 81 8 102-7 71-56 146-181 151-106-5-175-80-182-151-2-21 2-59 8-102-28 6-16-58-15-78 1-22 9-55 32-48 11-87 47-115 47-115l-1-93c0 0-23-14-120-54-97-40-66-8-145-47-125-63-125-233-125-233h0c0 0 0-1 0-1 0-25 21-46 47-46h729c-5 3-10 7-14 11l-63 63z m301-27c0 0 0 26-8 62l-98-98c-4-4-9-8-14-11h73c26 0 47 21 47 46 0 0 0 1 0 1h0z m0 156c0 26-21 47-47 47-13 0-24-6-33-14l-92-92-29 29c-9 9-20 14-33 14-26 0-47-21-47-47 0-13 5-24 14-33l62-62c9-9 20-14 33-14s25 5 33 14l125 125c9 8 14 20 14 33z" horiz-adv-x="1000" />

<glyph glyph-name="pen_3" unicode="&#xe81e;" d="M956 741l-66 66c-18 18-48 18-66 0l-99-99 132-132 99 99c18 18 18 48 0 66z m-128-782h-719v719h522l93 94h-661c-26 0-47-21-47-47v-813c0-25 21-46 47-46h812c26 0 47 21 47 46v660l-94-94v-519z m-4 584l-132 132-396-395 132-132 396 395z m-605-472l176 44-132 132-44-176z" horiz-adv-x="1000" />

<glyph glyph-name="drop" unicode="&#xe81f;" d="M494 790c0 0-307-394-307-558 1-177 146-320 312-320 166 1 315 145 314 322 0 169-319 556-319 556z" horiz-adv-x="1000" />

<glyph glyph-name="bin" unicode="&#xe820;" d="M828 709h-234v47c0 26-21 47-47 47h-94c-26 0-47-21-47-47v-47h-234c-26 0-47-21-47-46v-47h750v47c0 25-21 46-47 46z m-656-765c0-26 21-47 47-47h562c26 0 47 21 47 47v625h-656v-625z m469 484c0 26 21 47 47 47s46-21 46-47v-390c0-26-21-47-46-47s-47 21-47 47v390z m-188 0c0 26 21 47 47 47s47-21 47-47v-390c0-26-21-47-47-47s-47 21-47 47v390z m-187 0c0 26 21 47 47 47s46-21 46-47v-390c0-26-21-47-46-47s-47 21-47 47v390z" horiz-adv-x="1000" />

<glyph glyph-name="book" unicode="&#xe821;" d="M156 569h125c26 0 47 21 47 47s-21 47-47 47h-125c-26 0-47-21-47-47s21-47 47-47z m0-266h125c26 0 47 21 47 47s-21 47-47 47h-125c-26 0-47-21-47-47s21-47 47-47z m688 500h-47v-906h47c26 0 47 21 47 47v812c0 26-21 47-47 47z m-641-47v-47h78c52 0 94-42 94-93s-42-94-94-94h-78v-78h78c52 0 94-42 94-94 0-52-42-94-94-94h-78v-78h78c52 0 94-42 94-94s-42-93-94-93h-78v-47c0-26 21-47 47-47h500v906h-500c-26 0-47-21-47-47z m125-672c0 26-21 47-47 47h-125c-26 0-47-21-47-47s21-46 47-46h125c26 0 47 21 47 46z" horiz-adv-x="1000" />

<glyph glyph-name="notepad" unicode="&#xe822;" d="M500 663c26 0 47 21 47 46v94c0 26-21 47-47 47s-47-21-47-47v-94c0-25 21-46 47-46z m234 0c26 0 47 21 47 46v94c0 26-21 47-47 47s-46-21-46-47v-94c0-25 21-46 46-46z m-468 0c26 0 47 21 47 46v94c0 26-21 47-47 47s-47-21-47-47v-94c0-25 21-46 47-46z m640 93h-78v-47c0-51-42-93-94-93s-93 42-93 93v47h-47v-47c0-51-42-93-94-93-52 0-94 42-94 93v47h-47v-47c0-51-42-93-93-93s-94 42-94 93v47h-78c-26 0-47-21-47-47v-812c0-26 21-47 47-47h812c26 0 47 21 47 47v812c0 26-21 47-47 47z m-117-750h-578c-22 0-39 18-39 39s17 39 39 39h578c22 0 39-17 39-39s-17-39-39-39z m-8 188h-562c-26 0-47 21-47 47s21 47 47 47h562c26 0 47-21 47-47s-21-47-47-47z m0 203h-562c-26 0-47 21-47 47s21 47 47 47h562c26 0 47-21 47-47s-21-47-47-47z" horiz-adv-x="1000" />

<glyph glyph-name="block" unicode="&#xe823;" d="M500 850c-276 0-500-224-500-500s224-500 500-500 500 224 500 500-224 500-500 500z m0-906c-224 0-406 182-406 406 0 95 33 183 88 252l570-570c-69-55-157-88-252-88z m318 154l-570 570c69 55 157 88 252 88 224 0 406-182 406-406 0-95-33-183-88-252z" horiz-adv-x="1000" />

<glyph glyph-name="grid_2" unicode="&#xe824;" d="M406 303h-312c-26 0-47-21-47-47v-312c0-26 21-47 47-47h312c26 0 47 21 47 47v312c0 26-21 47-47 47z m0 500h-312c-26 0-47-21-47-47v-312c0-26 21-47 47-47h312c26 0 47 21 47 47v312c0 26-21 47-47 47z m500 0h-312c-26 0-47-21-47-47v-312c0-26 21-47 47-47h312c26 0 47 21 47 47v312c0 26-21 47-47 47z m0-500h-312c-26 0-47-21-47-47v-312c0-26 21-47 47-47h312c26 0 47 21 47 47v312c0 26-21 47-47 47z" horiz-adv-x="1000" />

<glyph glyph-name="shopping_cart" unicode="&#xe825;" d="M816 225c17 1 32 12 39 28l0 0 141 312 0 0c2 6 4 13 4 19 0 26-21 47-47 47h-694l-27 78 0 0c-7 18-24 32-44 32h-141c-26 0-47-21-47-47s21-47 47-47h107l181-516h-85c-52 0-94-42-94-93s42-94 94-94 94 42 94 94h437c0-52 42-94 94-94s94 42 94 94-42 93-94 93h-441l-23 67 405 27 0 0z m-437 65l-87 248h589l-100-221-402-27z" horiz-adv-x="1000" />

<glyph glyph-name="lock" unicode="&#xe826;" d="M859 350h-78v219c0 155-126 281-281 281-155 0-281-126-281-281v-219h-78c-26 0-47-21-47-47v-406c0-26 21-47 47-47h718c26 0 47 21 47 47v406c0 26-21 47-47 47z m-312-268v-91c0-26-21-47-47-47s-47 21-47 47v91c-28 16-47 46-47 81 0 51 42 93 94 93 52 0 94-42 94-93 0-35-19-65-47-81z m141 268h-375v219c0 103 84 187 187 187s188-84 188-187v-219z" horiz-adv-x="1000" />

<glyph glyph-name="layers" unicode="&#xe827;" d="M953 194c-6 0-12-1-18-4l0 0 0 0c0 0 0 0 0 0l-435-180-435 180c0 0 0 0 0 0l0 0 0 0c-6 3-12 4-18 4-26 0-47-21-47-47 0-20 12-36 29-43l0 0 453-188c0 0 0 0 0 0l0 0 0 0c6-2 12-4 18-4 6 0 12 2 18 4l0 0 0 0c0 0 0 0 0 0l453 188 0 0c17 7 29 23 29 43 0 26-21 47-47 47z m-924 316l0 0 453-187c0 0 0-1 0-1l0 0 0 0c6-2 12-3 18-3 6 0 12 1 18 3l0 0 0 0c0 0 0 1 0 1l453 187 0 0c17 7 29 24 29 43 0 20-12 36-29 43l0 0-453 188c0 0 0 0 0 0l0 0 0 0c-6 2-12 4-18 4-6 0-12-2-18-4l0 0 0 0c0 0 0 0 0 0l-453-188 0 0c-17-7-29-23-29-43 0-19 12-36 29-43z m924-113c-6 0-12-1-18-4l0 0 0 0c0 0 0 0 0 0l-435-180-435 180c0 0 0 0 0 0l0 0 0 0c-6 3-12 4-18 4-26 0-47-21-47-47 0-19 12-36 29-43l0 0 453-188c0 0 0 0 0 0l0 0 0 0c6-2 12-3 18-3 6 0 12 1 18 3l0 0 0 0c0 0 0 0 0 0l453 188 0 0c17 7 29 24 29 43 0 26-21 47-47 47z" horiz-adv-x="1000" />

<glyph glyph-name="pen_1" unicode="&#xe828;" d="M202 186l132-132 396 395-132 132-396-395z m-77-209l176 44-132 132-44-176z m737 670l-66 66c-18 18-48 18-66 0l-99-99 132-132 99 99c18 18 18 48 0 66z" horiz-adv-x="1000" />

<glyph glyph-name="unlock" unicode="&#xe829;" d="M859 350h-546v219c0 103 84 187 187 187s188-84 188-187c0-26 21-47 46-47s47 21 47 47c0 155-126 281-281 281-155 0-281-126-281-281v-219h-78c-26 0-47-21-47-47v-406c0-26 21-47 47-47h718c26 0 47 21 47 47v406c0 26-21 47-47 47z m-312-268v-91c0-26-21-47-47-47s-47 21-47 47v91c-28 16-47 46-47 81 0 51 42 93 94 93 52 0 94-42 94-93 0-35-19-65-47-81z" horiz-adv-x="1000" />

<glyph glyph-name="arrows_horizontal_2" unicode="&#xe82a;" d="M1000 350c0 14-6 26-15 35l0 0-157 141 0 0c-8 7-19 12-31 12-26 0-47-21-47-47 0-14 6-27 16-35l0 0 65-59h-662l66 59 0 0c9 8 15 21 15 35 0 26-21 47-47 47-12 0-23-5-31-12l0 0-156-141 0 0c-10-9-16-21-16-35s6-26 16-35l0 0 156-140 0 0c8-8 19-12 31-12 26 0 47 21 47 46 0 14-6 27-15 35l0 0-66 59h662l-65-59 0 0c-10-8-16-21-16-35 0-25 21-46 47-46 12 0 23 4 31 12l0 0 157 140 0 0c9 9 15 21 15 35z" horiz-adv-x="1000" />

<glyph glyph-name="pill" unicode="&#xe82b;" d="M859 698l-11 11c-107 107-280 107-387 0l-320-320c-107-107-107-280 0-387l11-11c107-107 280-107 387 0l320 320c107 107 107 280 0 387z m-387-641c-70-70-184-70-254 0l-11 11c-70 70-70 184 0 254l160 161 266-266-161-160z" horiz-adv-x="1000" />

<glyph glyph-name="help-circled" unicode="&#xe82c;" d="M500 82v107q0 8-5 13t-13 5h-107q-8 0-13-5t-5-13v-107q0-8 5-13t13-5h107q8 0 13 5t5 13z m143 375q0 49-31 91t-77 65-95 23q-136 0-207-119-9-14 4-24l74-55q4-4 10-4 9 0 14 7 30 38 48 51 19 14 48 14 27 0 48-15t21-33q0-21-11-34t-38-25q-35-16-65-48t-29-70v-20q0-8 5-13t13-5h107q8 0 13 5t5 13q0 10 12 27t30 28q18 10 28 16t25 19 25 27 16 34 7 45z m214-107q0-117-57-215t-156-156-215-58-216 58-155 156-58 215 58 215 155 156 216 58 215-58 156-156 57-215z" horiz-adv-x="857.1" />

<glyph glyph-name="info-circled" unicode="&#xe82d;" d="M571 82v89q0 8-5 13t-12 5h-54v286q0 8-5 13t-13 5h-178q-8 0-13-5t-5-13v-89q0-8 5-13t13-5h53v-179h-53q-8 0-13-5t-5-13v-89q0-8 5-13t13-5h250q7 0 12 5t5 13z m-71 500v89q0 8-5 13t-13 5h-107q-8 0-13-5t-5-13v-89q0-8 5-13t13-5h107q8 0 13 5t5 13z m357-232q0-117-57-215t-156-156-215-58-216 58-155 156-58 215 58 215 155 156 216 58 215-58 156-156 57-215z" horiz-adv-x="857.1" />

<glyph glyph-name="print" unicode="&#xe82e;" d="M214-7h500v143h-500v-143z m0 357h500v214h-89q-22 0-38 16t-16 38v89h-357v-357z m643-36q0 15-10 25t-26 11-25-11-10-25 10-25 25-10 26 10 10 25z m72 0v-232q0-7-6-12t-12-6h-125v-89q0-22-16-38t-38-16h-536q-22 0-37 16t-16 38v89h-125q-7 0-13 6t-5 12v232q0 44 32 76t75 31h36v304q0 22 16 38t37 16h375q23 0 50-12t42-26l85-85q15-16 27-43t11-49v-143h35q45 0 76-31t32-76z" horiz-adv-x="928.6" />

<glyph glyph-name="print-1" unicode="&#xe82f;" d="M66 526q-26 0-22 22 4 10 12 14 2 0 49 17t93 32 58 15l44 0 0 150 380 0 0-150 46 0q12 0 57-15t92-32 49-17q18-8 12-26-4-10-20-10l-850 0z m860-56q20 0 37-19t17-41l0-174q0-22-17-41t-37-19l-100 0 44-250-760 0 44 250-98 0q-20 0-38 19t-18 41l0 174q0 22 18 41t38 19l870 0z m-716-444l560 0-70 324-420 0z" horiz-adv-x="980" />

<glyph glyph-name="print-2" unicode="&#xe830;" d="M729 689q65 0 110-46t46-110l0-522q0-65-46-110t-110-46l-573 0q-65 0-110 46t-46 110l0 522q0 65 46 110t110 46l0 104q0 21 16 36t37 16l469 0q21 0 36-16t15-36l0-104z m-469 51l0-260 365 0 0 260-365 0z m-104-156q-21 0-37-15t-15-36l0-132q0-31 23-54t56-23l520 0q32 0 55 23t23 54l0 132q0 21-15 36t-37 15l0-156q0-22-15-37t-36-15l-469 0q-21 0-37 15t-16 37l0 156z m573-625q21 0 37 15t15 37l0 288q-36-28-78-28l-520 0q-43 0-79 28l0-288q0-21 15-37t37-15l573 0z m-181 625q25 0 25-25 0-26-25-26l-209 0q-11 0-19 7t-7 19q0 25 26 25l209 0z m77-469q11 0 19-7t7-19q0-25-26-25l-365 0q-25 0-25 25 0 26 25 26l365 0z m-77 574q25 0 25-26t-25-27l-209 0q-11 0-19 8t-7 19 7 18 19 8l209 0z" horiz-adv-x="885" />

<glyph glyph-name="to-end" unicode="&#xe831;" d="M25-71q-10-11-18-8t-7 18v822q0 14 7 18t18-8l396-396q5-4 8-10v378q0 14 10 25t25 11h72q14 0 25-11t10-25v-786q0-14-10-25t-25-11h-72q-14 0-25 11t-10 25v379q-3-6-8-11z" horiz-adv-x="571.4" />

<glyph glyph-name="to-end-alt" unicode="&#xe832;" d="M25-71q-10-11-18-8t-7 18v822q0 14 7 18t18-8l396-396q5-4 8-10v396q0 14 7 18t18-8l396-396q4-4 7-10v378q0 14 11 25t25 11h71q15 0 25-11t11-25v-786q0-14-11-25t-25-11h-71q-15 0-25 11t-11 25v379q-3-6-7-11l-396-396q-11-11-18-8t-7 18v397q-3-6-8-11z" horiz-adv-x="1000" />

<glyph glyph-name="to-start" unicode="&#xe833;" d="M546 771q11 11 18 8t7-18v-822q0-14-7-18t-18 8l-396 396q-5 5-7 11v-379q0-14-11-25t-25-11h-71q-15 0-25 11t-11 25v786q0 14 11 25t25 11h71q15 0 25-11t11-25v-378q2 6 7 10z" horiz-adv-x="571.4" />

<glyph glyph-name="to-start-alt" unicode="&#xe834;" d="M975 771q11 11 18 8t7-18v-822q0-14-7-18t-18 8l-396 396q-5 5-8 11v-397q0-14-7-18t-18 8l-396 396q-5 5-7 11v-379q0-14-11-25t-25-11h-71q-15 0-25 11t-11 25v786q0 14 11 25t25 11h71q15 0 25-11t11-25v-378q2 6 7 10l396 396q11 11 18 8t7-18v-396q3 6 8 10z" horiz-adv-x="1000" />

<glyph glyph-name="arrows-cw" unicode="&#xe835;" d="M843 261q0-3 0-4-36-150-150-243t-267-93q-81 0-157 31t-136 88l-72-72q-11-11-25-11t-25 11-11 25v250q0 14 11 25t25 11h250q14 0 25-11t10-25-10-25l-77-77q40-36 90-57t105-20q74 0 139 37t104 99q6 10 30 66 4 13 16 13h107q8 0 13-6t5-12z m14 446v-250q0-14-10-25t-26-11h-250q-14 0-25 11t-10 25 10 25l77 77q-82 77-194 77-75 0-140-37t-104-99q-6-10-29-66-5-13-17-13h-111q-7 0-13 6t-5 12v4q36 150 151 243t268 93q81 0 158-31t137-88l72 72q11 11 25 11t26-11 10-25z" horiz-adv-x="857.1" />

<glyph glyph-name="sort" unicode="&#xf0dc;" d="M571 243q0-15-10-25l-250-250q-11-11-25-11t-25 11l-250 250q-11 10-11 25t11 25 25 11h500q14 0 25-11t10-25z m0 214q0-14-10-25t-25-11h-500q-15 0-25 11t-11 25 11 25l250 250q10 11 25 11t25-11l250-250q10-10 10-25z" horiz-adv-x="571.4" />

<glyph glyph-name="sort-down" unicode="&#xf0dd;" d="M571 243q0-15-10-25l-250-250q-11-11-25-11t-25 11l-250 250q-11 10-11 25t11 25 25 11h500q14 0 25-11t10-25z" horiz-adv-x="571.4" />

<glyph glyph-name="sort-up" unicode="&#xf0de;" d="M571 457q0-14-10-25t-25-11h-500q-15 0-25 11t-11 25 11 25l250 250q10 11 25 11t25-11l250-250q10-10 10-25z" horiz-adv-x="571.4" />
</font>
</defs>
</svg>
